<mxfile host="app.diagrams.net" modified="2024-05-05T07:26:32.153Z" agent="Mozilla/5.0 (Windows NT 10.0; Win64; x64) AppleWebKit/537.36 (KHTML, like Gecko) Chrome/124.0.0.0 Safari/537.36" etag="9Adokj2A4C4ANvGDbf0Q" version="24.2.8" type="device">
  <diagram name="Page-1" id="PR7BAgeTNSefuLgVjGSt">
    <mxGraphModel dx="1588" dy="829" grid="1" gridSize="10" guides="1" tooltips="1" connect="1" arrows="1" fold="1" page="1" pageScale="1" pageWidth="850" pageHeight="1100" math="0" shadow="0">
      <root>
        <mxCell id="0" />
        <mxCell id="1" parent="0" />
        <mxCell id="DOVScbBnMmLRzkkaD7LO-1" value="User" style="shape=umlActor;verticalLabelPosition=bottom;verticalAlign=top;html=1;outlineConnect=0;" vertex="1" parent="1">
          <mxGeometry x="80" y="450" width="30" height="60" as="geometry" />
        </mxCell>
        <mxCell id="DOVScbBnMmLRzkkaD7LO-2" value="" style="rounded=0;whiteSpace=wrap;html=1;" vertex="1" parent="1">
          <mxGeometry x="225" y="110" width="425" height="740" as="geometry" />
        </mxCell>
        <mxCell id="DOVScbBnMmLRzkkaD7LO-14" value="&lt;b&gt;AndroCom Android Application&lt;/b&gt;" style="text;html=1;align=center;verticalAlign=middle;whiteSpace=wrap;rounded=0;" vertex="1" parent="1">
          <mxGeometry x="342.5" y="80" width="190" height="30" as="geometry" />
        </mxCell>
        <mxCell id="DOVScbBnMmLRzkkaD7LO-15" value="Profile setup" style="ellipse;whiteSpace=wrap;html=1;" vertex="1" parent="1">
          <mxGeometry x="260" y="140" width="120" height="80" as="geometry" />
        </mxCell>
        <mxCell id="DOVScbBnMmLRzkkaD7LO-16" value="View active users on ad hoc network" style="ellipse;whiteSpace=wrap;html=1;" vertex="1" parent="1">
          <mxGeometry x="260" y="240" width="120" height="80" as="geometry" />
        </mxCell>
        <mxCell id="DOVScbBnMmLRzkkaD7LO-26" style="rounded=0;orthogonalLoop=1;jettySize=auto;html=1;exitX=0;exitY=0.5;exitDx=0;exitDy=0;entryX=1;entryY=0.5;entryDx=0;entryDy=0;dashed=1;" edge="1" parent="1" source="DOVScbBnMmLRzkkaD7LO-18" target="DOVScbBnMmLRzkkaD7LO-17">
          <mxGeometry relative="1" as="geometry" />
        </mxCell>
        <mxCell id="DOVScbBnMmLRzkkaD7LO-27" value="&amp;lt;&amp;lt;Include&amp;gt;&amp;gt;" style="edgeLabel;html=1;align=center;verticalAlign=middle;resizable=0;points=[];" vertex="1" connectable="0" parent="DOVScbBnMmLRzkkaD7LO-26">
          <mxGeometry x="0.1894" relative="1" as="geometry">
            <mxPoint x="13" as="offset" />
          </mxGeometry>
        </mxCell>
        <mxCell id="DOVScbBnMmLRzkkaD7LO-17" value="Text messaging" style="ellipse;whiteSpace=wrap;html=1;" vertex="1" parent="1">
          <mxGeometry x="260" y="340" width="120" height="80" as="geometry" />
        </mxCell>
        <mxCell id="DOVScbBnMmLRzkkaD7LO-18" value="End-to-end Encryption" style="ellipse;whiteSpace=wrap;html=1;" vertex="1" parent="1">
          <mxGeometry x="490" y="340" width="120" height="80" as="geometry" />
        </mxCell>
        <mxCell id="DOVScbBnMmLRzkkaD7LO-19" value="Voice Calling" style="ellipse;whiteSpace=wrap;html=1;" vertex="1" parent="1">
          <mxGeometry x="260" y="440" width="120" height="80" as="geometry" />
        </mxCell>
        <mxCell id="DOVScbBnMmLRzkkaD7LO-20" value="Video Calling" style="ellipse;whiteSpace=wrap;html=1;" vertex="1" parent="1">
          <mxGeometry x="260" y="540" width="120" height="80" as="geometry" />
        </mxCell>
        <mxCell id="DOVScbBnMmLRzkkaD7LO-21" value="Settings" style="ellipse;whiteSpace=wrap;html=1;" vertex="1" parent="1">
          <mxGeometry x="260" y="640" width="120" height="80" as="geometry" />
        </mxCell>
        <mxCell id="DOVScbBnMmLRzkkaD7LO-29" style="rounded=0;orthogonalLoop=1;jettySize=auto;html=1;exitX=0;exitY=0.5;exitDx=0;exitDy=0;entryX=1;entryY=0.5;entryDx=0;entryDy=0;dashed=1;" edge="1" parent="1" source="DOVScbBnMmLRzkkaD7LO-22" target="DOVScbBnMmLRzkkaD7LO-19">
          <mxGeometry relative="1" as="geometry" />
        </mxCell>
        <mxCell id="DOVScbBnMmLRzkkaD7LO-31" style="rounded=0;orthogonalLoop=1;jettySize=auto;html=1;exitX=0;exitY=1;exitDx=0;exitDy=0;entryX=1;entryY=0;entryDx=0;entryDy=0;dashed=1;" edge="1" parent="1" source="DOVScbBnMmLRzkkaD7LO-22" target="DOVScbBnMmLRzkkaD7LO-20">
          <mxGeometry relative="1" as="geometry" />
        </mxCell>
        <mxCell id="DOVScbBnMmLRzkkaD7LO-22" value="Mute mic" style="ellipse;whiteSpace=wrap;html=1;" vertex="1" parent="1">
          <mxGeometry x="490" y="440" width="120" height="80" as="geometry" />
        </mxCell>
        <mxCell id="DOVScbBnMmLRzkkaD7LO-23" value="Disable camera" style="ellipse;whiteSpace=wrap;html=1;" vertex="1" parent="1">
          <mxGeometry x="490" y="540" width="120" height="80" as="geometry" />
        </mxCell>
        <mxCell id="DOVScbBnMmLRzkkaD7LO-24" value="Mute notifications" style="ellipse;whiteSpace=wrap;html=1;" vertex="1" parent="1">
          <mxGeometry x="490" y="740" width="120" height="80" as="geometry" />
        </mxCell>
        <mxCell id="DOVScbBnMmLRzkkaD7LO-25" value="Block or unblock users" style="ellipse;whiteSpace=wrap;html=1;" vertex="1" parent="1">
          <mxGeometry x="490" y="640" width="120" height="80" as="geometry" />
        </mxCell>
        <mxCell id="DOVScbBnMmLRzkkaD7LO-32" style="rounded=0;orthogonalLoop=1;jettySize=auto;html=1;exitX=0;exitY=0.5;exitDx=0;exitDy=0;entryX=1;entryY=0.5;entryDx=0;entryDy=0;dashed=1;" edge="1" parent="1" source="DOVScbBnMmLRzkkaD7LO-23" target="DOVScbBnMmLRzkkaD7LO-20">
          <mxGeometry relative="1" as="geometry">
            <mxPoint x="518" y="518" as="sourcePoint" />
            <mxPoint x="390" y="590" as="targetPoint" />
          </mxGeometry>
        </mxCell>
        <mxCell id="DOVScbBnMmLRzkkaD7LO-33" style="rounded=0;orthogonalLoop=1;jettySize=auto;html=1;exitX=0;exitY=0.5;exitDx=0;exitDy=0;entryX=1;entryY=0.5;entryDx=0;entryDy=0;dashed=1;" edge="1" parent="1" source="DOVScbBnMmLRzkkaD7LO-25" target="DOVScbBnMmLRzkkaD7LO-21">
          <mxGeometry relative="1" as="geometry">
            <mxPoint x="528" y="528" as="sourcePoint" />
            <mxPoint x="400" y="600" as="targetPoint" />
          </mxGeometry>
        </mxCell>
        <mxCell id="DOVScbBnMmLRzkkaD7LO-34" style="rounded=0;orthogonalLoop=1;jettySize=auto;html=1;exitX=0;exitY=0;exitDx=0;exitDy=0;entryX=1;entryY=1;entryDx=0;entryDy=0;dashed=1;" edge="1" parent="1" source="DOVScbBnMmLRzkkaD7LO-24" target="DOVScbBnMmLRzkkaD7LO-21">
          <mxGeometry relative="1" as="geometry">
            <mxPoint x="538" y="538" as="sourcePoint" />
            <mxPoint x="410" y="610" as="targetPoint" />
          </mxGeometry>
        </mxCell>
        <mxCell id="DOVScbBnMmLRzkkaD7LO-35" value="&amp;lt;&amp;lt;Include&amp;gt;&amp;gt;" style="edgeLabel;html=1;align=center;verticalAlign=middle;resizable=0;points=[];" vertex="1" connectable="0" parent="1">
          <mxGeometry x="449.99545454545813" y="610" as="geometry">
            <mxPoint x="-12" y="68" as="offset" />
          </mxGeometry>
        </mxCell>
        <mxCell id="DOVScbBnMmLRzkkaD7LO-37" value="&amp;lt;&amp;lt;Include&amp;gt;&amp;gt;" style="edgeLabel;html=1;align=center;verticalAlign=middle;resizable=0;points=[];" vertex="1" connectable="0" parent="1">
          <mxGeometry x="437.49545454545813" y="730" as="geometry" />
        </mxCell>
        <mxCell id="DOVScbBnMmLRzkkaD7LO-38" value="&amp;lt;&amp;lt;Extend&amp;gt;&amp;gt;" style="edgeLabel;html=1;align=center;verticalAlign=middle;resizable=0;points=[];" vertex="1" connectable="0" parent="1">
          <mxGeometry x="437.49545454545813" y="480" as="geometry" />
        </mxCell>
        <mxCell id="DOVScbBnMmLRzkkaD7LO-39" value="&amp;lt;&amp;lt;Extend&amp;gt;&amp;gt;" style="edgeLabel;html=1;align=center;verticalAlign=middle;resizable=0;points=[];" vertex="1" connectable="0" parent="1">
          <mxGeometry x="437.49545454545813" y="580" as="geometry" />
        </mxCell>
        <mxCell id="DOVScbBnMmLRzkkaD7LO-40" value="&amp;lt;&amp;lt;Extend&amp;gt;&amp;gt;" style="edgeLabel;html=1;align=center;verticalAlign=middle;resizable=0;points=[];" vertex="1" connectable="0" parent="1">
          <mxGeometry x="437.49545454545813" y="530" as="geometry" />
        </mxCell>
        <mxCell id="DOVScbBnMmLRzkkaD7LO-42" style="rounded=0;orthogonalLoop=1;jettySize=auto;html=1;entryX=0;entryY=0.5;entryDx=0;entryDy=0;endArrow=none;endFill=0;" edge="1" parent="1" target="DOVScbBnMmLRzkkaD7LO-15">
          <mxGeometry relative="1" as="geometry">
            <mxPoint x="130" y="480" as="sourcePoint" />
          </mxGeometry>
        </mxCell>
        <mxCell id="DOVScbBnMmLRzkkaD7LO-43" style="rounded=0;orthogonalLoop=1;jettySize=auto;html=1;entryX=0;entryY=0.5;entryDx=0;entryDy=0;endArrow=none;endFill=0;" edge="1" parent="1" target="DOVScbBnMmLRzkkaD7LO-16">
          <mxGeometry relative="1" as="geometry">
            <mxPoint x="130" y="480" as="sourcePoint" />
            <mxPoint x="270" y="190" as="targetPoint" />
          </mxGeometry>
        </mxCell>
        <mxCell id="DOVScbBnMmLRzkkaD7LO-44" style="rounded=0;orthogonalLoop=1;jettySize=auto;html=1;entryX=0;entryY=0.5;entryDx=0;entryDy=0;endArrow=none;endFill=0;" edge="1" parent="1" target="DOVScbBnMmLRzkkaD7LO-17">
          <mxGeometry relative="1" as="geometry">
            <mxPoint x="130" y="480" as="sourcePoint" />
            <mxPoint x="280" y="200" as="targetPoint" />
          </mxGeometry>
        </mxCell>
        <mxCell id="DOVScbBnMmLRzkkaD7LO-45" style="rounded=0;orthogonalLoop=1;jettySize=auto;html=1;entryX=0;entryY=0.5;entryDx=0;entryDy=0;endArrow=none;endFill=0;" edge="1" parent="1" target="DOVScbBnMmLRzkkaD7LO-19">
          <mxGeometry relative="1" as="geometry">
            <mxPoint x="130" y="480" as="sourcePoint" />
            <mxPoint x="290" y="210" as="targetPoint" />
          </mxGeometry>
        </mxCell>
        <mxCell id="DOVScbBnMmLRzkkaD7LO-46" style="rounded=0;orthogonalLoop=1;jettySize=auto;html=1;entryX=0;entryY=0.5;entryDx=0;entryDy=0;endArrow=none;endFill=0;" edge="1" parent="1" target="DOVScbBnMmLRzkkaD7LO-20">
          <mxGeometry relative="1" as="geometry">
            <mxPoint x="130" y="480" as="sourcePoint" />
            <mxPoint x="300" y="220" as="targetPoint" />
          </mxGeometry>
        </mxCell>
        <mxCell id="DOVScbBnMmLRzkkaD7LO-47" style="rounded=0;orthogonalLoop=1;jettySize=auto;html=1;entryX=0;entryY=0.5;entryDx=0;entryDy=0;endArrow=none;endFill=0;" edge="1" parent="1" target="DOVScbBnMmLRzkkaD7LO-21">
          <mxGeometry relative="1" as="geometry">
            <mxPoint x="130" y="480" as="sourcePoint" />
            <mxPoint x="310" y="230" as="targetPoint" />
          </mxGeometry>
        </mxCell>
      </root>
    </mxGraphModel>
  </diagram>
</mxfile>
